<?xml version="1.0" encoding="UTF-8" standalone="no"?>
<!-- Created with Inkscape (http://www.inkscape.org/) -->

<svg
   width="55.126118mm"
   height="35.990253mm"
   viewBox="0 0 55.126118 35.990253"
   version="1.1"
   id="svg16615"
   inkscape:version="1.2.2 (b0a8486541, 2022-12-01)"
   sodipodi:docname="tamu.svg"
   xmlns:inkscape="http://www.inkscape.org/namespaces/inkscape"
   xmlns:sodipodi="http://sodipodi.sourceforge.net/DTD/sodipodi-0.dtd"
   xmlns="http://www.w3.org/2000/svg"
   xmlns:svg="http://www.w3.org/2000/svg">
  <sodipodi:namedview
     id="namedview16617"
     pagecolor="#ffffff"
     bordercolor="#000000"
     borderopacity="0.25"
     inkscape:showpageshadow="2"
     inkscape:pageopacity="0.0"
     inkscape:pagecheckerboard="0"
     inkscape:deskcolor="#d1d1d1"
     inkscape:document-units="mm"
     showgrid="false"
     inkscape:zoom="3.1963805"
     inkscape:cx="126.70582"
     inkscape:cy="68.358571"
     inkscape:window-width="1900"
     inkscape:window-height="974"
     inkscape:window-x="0"
     inkscape:window-y="0"
     inkscape:window-maximized="1"
     inkscape:current-layer="layer1" />
  <defs
     id="defs16612" />
  <g
     inkscape:label="Layer 1"
     inkscape:groupmode="layer"
     id="layer1"
     transform="translate(-64.265808,-151.98596)">
    <rect
       style="fill:#ff0000;stroke-width:3.22635;opacity:0"
       id="rect31439"
       width="55.126118"
       height="35.990253"
       x="64.265808"
       y="151.98596" />
    <g
       id="g13561"
       transform="matrix(0.04431427,0,0,0.04431427,65.644845,159.55437)">
      <g
         id="g13540">
	<circle
   style="fill:#eeb490"
   cx="163.942"
   cy="159.364"
   r="36.959"
   id="circle13536" />

	<circle
   style="fill:#eeb490"
   cx="344.328"
   cy="159.364"
   r="36.959"
   id="circle13538" />

</g>
      <circle
         style="fill:#56545f"
         cx="254.13499"
         cy="115.285"
         r="115.285"
         id="circle13542" />
      <path
         style="fill:#31496a;fill-opacity:1"
         d="M 338.564,284.821 H 169.706 c -77.309,0 -140.037,62.728 -140.037,140.037 v 83.751 H 478.94 V 424.858 C 478.601,347.55 415.873,284.821 338.564,284.821 Z"
         id="path13545" />
      <path
         style="fill:#85bdda;fill-opacity:1"
         d="m 166.993,284.821 v 116.98 c 0,48.148 38.993,87.142 87.142,87.142 48.149,0 87.142,-38.993 87.142,-87.142 v -116.98 z"
         id="path13547" />
      <circle
         style="fill:#eeb490"
         cx="254.13499"
         cy="271.936"
         r="62.728001"
         id="circle13549" />
      <g
         id="g13555">
	<circle
   style="fill:#f1f3f7"
   cx="218.87199"
   cy="341.785"
   r="26.108999"
   id="circle13551" />

	<circle
   style="fill:#f1f3f7"
   cx="289.39899"
   cy="341.785"
   r="26.108999"
   id="circle13553" />

</g>
      <circle
         style="fill:#d6d6d8"
         cx="254.13499"
         cy="341.785"
         r="19.666"
         id="circle13557" />
      <path
         style="fill:#faccb4"
         d="m 330.766,74.257 c -10.172,17.971 -40.689,31.195 -76.63,31.195 -35.941,0 -66.458,-13.224 -76.63,-31.195 -11.189,15.597 -17.632,34.585 -17.632,54.93 v 69.171 c 0,52.217 42.384,94.262 94.262,94.262 52.217,0 94.262,-42.384 94.262,-94.262 v -68.832 c -0.001,-20.684 -6.443,-39.672 -17.632,-55.269 z"
         id="path13559" />
    </g>
    <g
       id="g13569"
       transform="matrix(0.03857875,0,0,0.04367991,96.689496,159.87701)">
      <path
         style="fill:#31496a;fill-opacity:1"
         d="M 430.113,339.751 321.27,326.527 H 187.675 v 0 L 78.833,339.751 C 38.144,344.837 7.289,379.423 7.289,420.45 v 88.159 H 501.318 V 420.45 c 0.339,-41.027 -30.517,-75.952 -71.205,-80.699 z"
         id="path13563" />
      <path
         style="fill:#85bdda;fill-opacity:1"
         d="M 394.849,153.6 C 394.849,68.832 331.781,0 254.473,0 177.165,0 114.097,68.832 114.097,153.6 c 0,47.809 20.005,90.532 51.2,118.676 8.477,9.833 24.413,33.907 -4.408,58.999 l 93.584,146.14 93.584,-146.14 c -28.821,-25.091 -12.885,-49.166 -4.408,-58.999 31.195,-28.144 51.2,-70.867 51.2,-118.676 z"
         id="path13565" />
      <path
         style="fill:#faccb4"
         d="m 254.473,293.637 c 51.539,0 93.584,-42.045 93.584,-93.584 v -59.338 c -26.109,-19.666 -58.66,-31.195 -93.584,-31.195 -35.264,0 -67.476,11.528 -93.584,31.195 v 59.338 c 0,51.878 42.045,93.584 93.584,93.584 z"
         id="path13567" />
    </g>
    <path
       style="opacity:0.8;fill:#c8e1ee;fill-opacity:1;stroke:#c8e1ee;stroke-width:1.29259;stroke-dasharray:none;stroke-dashoffset:0;stroke-opacity:1"
       d="m 91.919709,155.39148 v 28.9294"
       id="path13571" />
  </g>
</svg>
